<svg id="Layer_2" data-name="Layer 2" xmlns="http://www.w3.org/2000/svg" viewBox="0 0 240 240"><defs><style>.cls-1{fill:#fff;}</style></defs><title>personal logo black</title><circle class="cls-1" cx="120" cy="120" r="120"/><path d="M119.83566,231.68164c-51.19434,0-96.75781-35.94824-108.33984-85.47559a126.5046,126.5046,0,0,1-2.125-13.33691c-.25342-2.06152-.51514-4.19336-.82129-6.27637-.041-.27636-.10889-.5498-.17627-.82324l-.11133-.46973V114.72656c.10352-.96386.19971-1.873.29639-2.78222.21142-1.99707.42334-3.99414.67773-5.98633A109.61979,109.61979,0,0,1,37.99142,44.19629c18.01319-19.4624,40.04932-31.11572,65.49707-34.63477a128.92185,128.92185,0,0,1,17.59424-1.24267c28.92188,0,54.70508,10.606,76.63477,31.52392,18.34277,17.49659,29.44238,39.45118,32.98925,65.25391a112.52405,112.52405,0,0,1-5.14746,51.69824c-2.34082,6.93946-4.43945,13.00488-6.416,18.543a11.91789,11.91789,0,0,1-1.44922,2.58984c-.16211.23926-.32324.47852-.47754.71973-3.249,5.05078-8.25488,5.63477-11.73828,5.63477-.52637.001-1.05762-.01465-1.5957-.042-12.00977-.60742-21.65137-6.39257-30.34278-18.207-3.82812-5.20312-4.17285-11.19922-4.19726-16.8955-.04981-11.69922,1.10449-24.4209,3.63379-40.03614,1.624-10.03808,3.21972-20.25488,4.76269-30.13427l.415-2.66065a3.72778,3.72778,0,0,0-.06348-1.38184c-.06738.07032-.13476.14063-.20312.21094a21.213,21.213,0,0,0-1.63281,1.835q-3.21681,4.25465-6.40821,8.53028c-3.5,4.67382-7.12011,9.50683-10.74218,14.21386a56.813,56.813,0,0,1-12.39747,11.94825,14.015,14.015,0,0,1-2.74414,1.54687,7.97707,7.97707,0,0,1-2.99023.61719,5.92139,5.92139,0,0,1-5.66895-4.02637,29.02108,29.02108,0,0,1-1.35937-5.49023c-.14844-.82422-.2959-1.64746-.47461-2.459-.09277-.4209-.17285-.84668-.25195-1.27343a16.57233,16.57233,0,0,0-.67969-2.76563,3.70529,3.70529,0,0,0-3.47852-2.76465,4.68259,4.68259,0,0,0-1.73535.36231c-5.53613,2.22265-8.68994,5.57226-9.92578,10.543a201.27835,201.27835,0,0,1-15.96826,42.30175c-.25.49219-.48877.99121-.72217,1.49219.144.02051.28809.041.43262.06055a20.90014,20.90014,0,0,1,2.1665.38281c1.84864.46094,2.82373,1.52344,2.74512,2.99121-.0874,1.62988-1.25635,2.67871-3.12744,2.80566-.35645.02344-.71338.05274-1.0708.082-.84864.06836-1.72657.13964-2.59619.13964-.26368,0-.52637-.00683-.78955-.02148-.11036-.00586-.2168-.00977-.32032-.00977a2.41592,2.41592,0,0,0-2.40088,1.52247,112.84189,112.84189,0,0,1-16.11816,22.91894,106.14588,106.14588,0,0,1-17.27344,15.11133,5.08214,5.08214,0,0,1-2.91357,1.07715,3.94514,3.94514,0,0,1-2.36572-.83106,4.18549,4.18549,0,0,1-1.36963-5.29492c1.95556-4.86035,3.66308-8.81934,5.37353-12.46,3.01563-6.415,6.14258-12.90723,9.166-19.18652q1.85229-3.84522,3.70019-7.69239c.19824-.415.75586-1.55468.75586-1.55468-4.91455-3.96192-8.43994-8.98145-11.24756-13.3877A54.36262,54.36262,0,0,1,54.49679,105.5c.15039-6.27051.874-14.41113,5.17286-21.76562C64.23117,75.93018,71.62228,71.48,77.552,68.47559a42.42452,42.42452,0,0,1,19.2417-4.86573c.86377,0,1.74023.02979,2.60547.08838,6.41943.43457,11.09179,2.36719,14.70508,6.08155,3.53857,3.63818,4.57128,8.27929,5.07519,11.9165.33643,2.42676.64063,4.85937.94434,7.28906l.335,2.666c.59765-.19824,1.1875-.40137,1.77246-.60254,1.71484-.58985,3.334-1.14649,5.03027-1.56543a12.70766,12.70766,0,0,1,3.03223-.38965c4.63867,0,7.88086,2.94922,8.89355,8.0918.33985,1.72265.65723,3.44922.97461,5.17578.2334,1.27051.4668,2.54.709,3.80859a8.12514,8.12514,0,0,0,.27832.97071c.02539.07519.05078.15429.07812.23828.43067-.28418.85547-.55664,1.27149-.82422a35.23088,35.23088,0,0,0,3.44238-2.40235c5.05078-4.16992,9.07031-9.4541,12.959-14.56445l.3125-.41113c4.21289-5.53613,8.55469-11.11817,12.75489-16.5166l3.01269-3.874a14.78928,14.78928,0,0,1,1.91406-2.042,5.04307,5.04307,0,0,1,3.36426-1.37305,5.29645,5.29645,0,0,1,1.86621.35938,4.5219,4.5219,0,0,1,3.21289,4.2793,69.07127,69.07127,0,0,1-.48925,9.68554c-.98047,7.00977-2.00489,14.01465-3.02832,21.01856-1.63575,11.19043-3.32715,22.76172-4.80664,34.165a128.201,128.201,0,0,0-.75,14.958c-.01758,1.53907-.03418,3.07813-.06836,4.61329-.06739,3.05859,1.50586,5.7041,2.88378,7.667,5.71192,8.13574,11.90137,12.75879,19.48047,14.5498a27.79727,27.79727,0,0,0,6.40918.6543c1.02051,0,2.10938-.03711,3.32813-.11231,1.07324-.0664,2.44238-1.2539,3.32226-2.40136a18.3905,18.3905,0,0,0,2.75782-5.21094l.73339-2.14355c3.25782-9.5254,6.627-19.374,8.29981-29.48536,4.72363-28.53613-1.09082-54.75586-17.28223-77.92968-17.20215-24.62012-40.668-39.32227-69.74707-43.69727a119.591,119.591,0,0,0-17.72851-1.36328c-27.87207,0-52.627,10.62353-73.57764,31.57519a99.815,99.815,0,0,0-29.39014,62.3545c-3.127,31.8291,6.32666,59.77929,28.09815,83.07519,17.63135,18.86719,39.73047,29.76367,65.68359,32.3877a111.05309,111.05309,0,0,0,11.09717.56543c19.7041,0,38.56152-5.55371,56.04785-16.50782a149.44258,149.44258,0,0,1,14.58887-7.68847l3.0332-1.46-1.335,1.69629c-.28223.35839-.56055.72168-.83789,1.085-.61035.79687-1.24121,1.62011-1.916,2.39355l-.10449.11914c-2.05371,2.34961-4.17871,4.7793-6.38086,7.06934a10.76854,10.76854,0,0,1-2.24414,1.64355c-.249.15235-.499.30371-.74121.46a111.62052,111.62052,0,0,1-50.47265,17.44532C126.7673,231.5166,123.28,231.68164,119.83566,231.68164ZM81.02511,153.044c-.42187,0-.76025.17089-1.24414,1.04394a269.71417,269.71417,0,0,0-14.01562,29.59473c-.21387.52929-.4126,1.06543-.60645,1.60254a102.55824,102.55824,0,0,0,24.81055-29.7295q-1.03564-.29-2.05029-.56836c-2.1128-.583-4.1084-1.13378-6.106-1.791A2.592,2.592,0,0,0,81.02511,153.044Zm2.63282-6.08985a22.947,22.947,0,0,0,9.52246,2.47461,1.43762,1.43762,0,0,0,.71631-.60058,167.46057,167.46057,0,0,0,14.834-36.87891C99.6467,121.34375,91.42941,132.81836,83.65793,146.9541ZM97.1716,69.86035c-8.75879.188-17.146,3.33936-24.9292,9.36621a28.857,28.857,0,0,0-11.438,21.55371c-.99267,13.50391,2.80811,26.07422,11.29688,37.35938a41.75492,41.75492,0,0,0,4.01953,4.38281c.56494.56055,1.14062,1.13281,1.71924,1.72949l.583-.96386c.53516-.88282.99268-1.63672,1.43653-2.39942,9.75048-16.72851,19.99951-30.15527,31.33252-41.04492a7.48288,7.48288,0,0,0,1.9458-3.67285,34.30333,34.30333,0,0,0-.647-16.353,12.46359,12.46359,0,0,0-9.748-9.27588,22.9203,22.9203,0,0,0-5.23633-.68554Z"/><path d="M121.083,8.81879c28.747-.00034,54.32464,10.43432,76.28949,31.38567,18.55493,17.69881,29.34967,39.58025,32.83917,64.96094a111.61413,111.61413,0,0,1-5.12647,51.46968q-3.13458,9.2919-6.41247,18.53488a16.60759,16.60759,0,0,1-1.87744,3.20681c-2.7425,4.26561-6.78107,5.4059-11.31513,5.4059-.518,0-1.0423-.01487-1.57208-.04168-13.20306-.66819-22.46307-7.805-29.96625-18.004-3.694-5.02116-4.07385-10.71728-4.09924-16.60141a243.13244,243.13244,0,0,1,3.6264-39.9539c1.76923-10.92578,3.47138-21.8625,5.17914-32.79813a5.11,5.11,0,0,0-.3139-2.448c-.83008.908-1.73877,1.75644-2.47766,2.73338-5.727,7.57237-11.359,15.2175-17.14893,22.74118a56.075,56.075,0,0,1-12.288,11.84341,13.57824,13.57824,0,0,1-2.64411,1.49275,7.49483,7.49483,0,0,1-2.80224.58055,5.43224,5.43224,0,0,1-5.20374-3.70861c-.97388-2.47937-1.23138-5.23985-1.81183-7.87422a30.46447,30.46447,0,0,0-.951-4.10637,4.21311,4.21311,0,0,0-3.94684-3.09,5.167,5.167,0,0,0-1.92291.39907c-5.05212,2.028-8.82855,5.27437-10.22424,10.88494A199.66718,199.66718,0,0,1,100.9841,148.028c-.28089.55356-.54785,1.11438-.80872,1.67766a1.79171,1.79171,0,0,0-.042.45925c1.00873.16287,2.04926.26031,3.05176.51044,1.28168.31978,2.4447,1.03912,2.36743,2.48025-.07916,1.47631-1.18976,2.2335-2.66156,2.33221-1.20789.081-2.42249.221-3.62836.221-.25586,0-.51123-.0063-.76617-.0208q-.17926-.01019-.34735-.0103a2.89312,2.89312,0,0,0-2.84217,1.785A113.20474,113.20474,0,0,1,79.26,180.28077a105.14338,105.14338,0,0,1-17.19177,15.04094,4.62111,4.62111,0,0,1-2.62635.9863,3.483,3.483,0,0,1-2.07275-.73574,3.69254,3.69254,0,0,1-1.19885-4.70434c1.68463-4.18616,3.443-8.34985,5.36224-12.43294,4.22485-8.9885,8.56818-17.92137,12.864-26.87653.29029-.60509.58759-1.20681.93085-1.91122-4.75208-3.74091-8.26129-8.50853-11.45093-13.51581a53.68662,53.68662,0,0,1-8.87939-30.6195c.1792-7.498,1.21557-14.872,5.10425-21.52522C64.23788,76.90924,70.688,72.51405,77.77792,68.92149A41.7426,41.7426,0,0,1,96.79324,64.11q1.2779,0,2.572.08719c5.42572.36753,10.4314,1.871,14.38074,5.93151,3.16333,3.25228,4.34,7.32109,4.93817,11.63643.48694,3.51354.90613,7.0365,1.35468,10.55032,2.524-.81751,4.89361-1.74256,7.3424-2.34672a12.17689,12.17689,0,0,1,2.91211-.37517c4.352,0,7.43518,2.77178,8.40363,7.68861.58862,2.98849,1.11151,5.98993,1.68249,8.982.09235.48372.28089.9491.57032,1.90088,1.924-1.301,3.73211-2.324,5.30932-3.62656,5.22852-4.31788,9.2735-9.70113,13.35126-15.05928,5.20209-6.83566,10.49353-13.60344,15.76434-20.38657a14.31376,14.31376,0,0,1,1.85-1.97271,4.545,4.545,0,0,1,3.03363-1.24866,4.77377,4.77377,0,0,1,1.68988.32694,4.01892,4.01892,0,0,1,2.88892,3.81284,68.14908,68.14908,0,0,1-.48365,9.61478c-2.57556,18.4015-5.44574,36.7635-7.83606,55.18822-.83929,6.46966-.67779,13.07728-.82226,19.62525-.0658,2.97881,1.28955,5.56538,2.97436,7.96544,4.97626,7.08875,11.14075,12.70856,19.77478,14.74894a28.48089,28.48089,0,0,0,6.523.66748c1.127,0,2.25226-.04451,3.36054-.11292,1.2998-.08025,2.7934-1.43113,3.68768-2.59591a18.96685,18.96685,0,0,0,2.835-5.35453c3.55127-10.41412,7.24836-20.8089,9.05249-31.70787,4.70179-28.40457-.87262-54.69307-17.36523-78.29779C189.45859,35.30783,165.94955,20.28424,136.455,15.84627a119.64643,119.64643,0,0,0-17.80316-1.36869c-28.07983-.00106-52.89111,10.68067-73.931,31.72163a100.32049,100.32049,0,0,0-29.53421,62.65891c-3.14294,31.99146,6.28659,59.98528,28.23062,83.46643,17.82972,19.07859,40.03052,29.91794,65.99866,32.54223a110.85557,110.85557,0,0,0,11.1485.56884c20.0379,0,38.81342-5.62235,56.31244-16.58376a159.68828,159.68828,0,0,1,15.62921-8.18615c-.90961,1.15581-1.77179,2.35306-2.73846,3.45894-2.119,2.42393-4.2389,4.85153-6.46875,7.17159a15.59277,15.59277,0,0,1-2.897,2.02953,110.62414,110.62414,0,0,1-50.24792,17.36731c-3.454.32726-6.90241.48814-10.31922.48814-50.61926,0-96.18188-35.18338-107.85183-85.08923-1.4972-6.40262-1.97922-13.04247-2.93882-19.57131-.06323-.43019-.18676-.85153-.28225-1.277V114.72627c.32119-2.902.60013-5.8094.97024-8.70516A108.7606,108.7606,0,0,1,38.35818,44.536C56.02286,25.45042,77.79788,13.6194,103.557,10.05664A127.88556,127.88556,0,0,1,121.083,8.81879M77.93112,145.068c.97119-1.61378,1.68127-2.76181,2.36078-3.92768,8.71112-14.946,18.71606-28.89507,31.2467-40.93622a7.9411,7.9411,0,0,0,2.08924-3.93382,34.71693,34.71693,0,0,0-.6557-16.58871A12.9185,12.9185,0,0,0,102.8569,70.055a23.65389,23.65389,0,0,0-5.34881-.6982q-.17386,0-.34711.0037c-9.49506.20394-17.82324,3.73981-25.22467,9.4704A29.38738,29.38738,0,0,0,60.306,100.74361c-1.029,13.99154,3.00775,26.54551,11.39587,37.69657a82.57207,82.57207,0,0,0,6.22925,6.62784m31.76147-34.81222c-10.83026,10.86216-19.34008,23.41672-26.70819,36.886a22.72669,22.72669,0,0,0,10.15418,2.78538l.03638.0015a1.76117,1.76117,0,0,0,1.16015-.85982,166.93981,166.93981,0,0,0,15.35748-38.813M64.0842,186.7929a103.75773,103.75773,0,0,0,26.6297-31.546c-3.03626-.8636-5.92231-1.59722-8.74451-2.52491a3.0669,3.0669,0,0,0-.945-.17815c-.74786,0-1.20666.4451-1.681,1.30231a268.91708,268.91708,0,0,0-14.04211,29.64868c-.43823,1.08629-.813,2.1981-1.21716,3.29807M121.08432,7.81877H121.083A129.46081,129.46081,0,0,0,103.42,9.06609c-25.5647,3.53584-47.7016,15.24112-65.79565,34.79068A110.113,110.113,0,0,0,8.74,105.89433c-.25427,1.98954-.46872,4.0125-.67612,5.96885q-.14593,1.3768-.29614,2.75309l-.006.05485v10.6834l.02426.10816c.03183.14169.06653.28294.10126.42418.06744.274.13113.53276.16735.77922.30524,2.07688.56693,4.20594.82,6.26491a126.9113,126.9113,0,0,0,2.13446,13.38869,111.12108,111.12108,0,0,0,39.6767,61.81859,112.66582,112.66582,0,0,0,69.1488,24.04294c3.46021,0,6.96381-.16572,10.41358-.4926a112.0987,112.0987,0,0,0,50.69574-17.52253c.2384-.15381.48346-.30243.72894-.45147a11.16179,11.16179,0,0,0,2.347-1.7254c2.22211-2.312,4.36225-4.76025,6.432-7.12784l.06866-.07857c.68628-.78512,1.32209-1.61559,1.937-2.41868.27661-.36132.55322-.72266.83441-1.08l2.66992-3.39253-3.88959,1.87312-1.10089.52959a149.61589,149.61589,0,0,0-14.6253,7.71007c-17.40577,10.903-36.17341,16.43122-55.78162,16.43122a110.34308,110.34308,0,0,1-11.048-.56379c-25.82831-2.61015-47.82148-13.4539-65.36853-32.23006-21.66922-23.187-31.07834-51.00659-27.96607-82.68587A99.32949,99.32949,0,0,1,45.428,46.9063c20.85455-20.85563,45.4906-31.42978,73.22381-31.42872a119.161,119.161,0,0,1,17.65448,1.35756C165.244,21.18933,188.5975,35.8214,205.71811,60.32487c16.11364,23.06237,21.9,49.1579,17.19836,77.56171-1.66662,10.06819-5.028,19.89629-8.27862,29.40079l-.73377,2.14765a17.88382,17.88382,0,0,1-2.6817,5.06828,5.39135,5.39135,0,0,1-2.95612,2.20682c-1.21014.07468-2.28924.111-3.29889.111a27.2975,27.2975,0,0,1-6.293-.64066c-7.45344-1.76138-13.55-6.32128-19.18628-14.35031-1.33423-1.9006-2.85743-4.45578-2.7931-7.36882.03394-1.53753.051-3.07834.06812-4.61987a127.8043,127.8043,0,0,1,.74609-14.89878c1.47974-11.40572,3.17188-22.9821,4.80835-34.17731,1.00586-6.88076,2.0459-13.99579,3.02637-21.00094a69.42554,69.42554,0,0,0,.49329-9.75625,4.99772,4.99772,0,0,0-3.53614-4.74572,5.7923,5.7923,0,0,0-2.04266-.39122,5.52482,5.52482,0,0,0-3.69287,1.49675,15.27137,15.27137,0,0,0-1.98041,2.111l-2.94824,3.79119c-4.22138,5.42641-8.58649,11.03753-12.82227,16.6034l-.31018.40769c-3.8717,5.089-7.87518,10.35131-12.88208,14.48613a34.98093,34.98093,0,0,1-3.392,2.3659q-.36071.23158-.72888.46942a4.78831,4.78831,0,0,1-.13971-.52611c-.24078-1.26184-.473-2.52543-.70526-3.789-.31323-1.70431-.63714-3.46662-.97833-5.19871-1.04779-5.31954-4.55609-8.49538-9.38477-8.49538a13.21316,13.21316,0,0,0-3.15161.40428c-1.719.42413-3.34961.985-5.076,1.57887q-.59032.20309-1.1878.40651-.12772-1.0129-.254-2.02653c-.30023-2.40219-.61066-4.88613-.94922-7.32882-.51465-3.71275-1.57208-8.45428-5.21185-12.1964-3.7038-3.808-8.47968-5.78825-15.03-6.232-.87628-.05937-1.7644-.08946-2.63959-.08946A42.91555,42.91555,0,0,0,77.326,68.02946c-5.99073,3.0356-13.46051,7.53528-18.088,15.45266-4.35693,7.45434-5.08935,15.676-5.24066,22.0059a54.84345,54.84345,0,0,0,9.03577,31.18066c2.76965,4.34808,6.23553,9.29047,11.04547,13.25646-.20447.41788-.39551.80866-.58362,1.20079q-1.8447,3.84563-3.69726,7.68759c-3.025,6.2816-6.153,12.77706-9.17011,19.19609-1.71,3.638-3.42108,7.60516-5.38489,12.485a4.70942,4.70942,0,0,0,1.53968,5.88737,4.49107,4.49107,0,0,0,2.6596.92606,5.55791,5.55791,0,0,0,3.201-1.16794A106.68623,106.68623,0,0,0,79.9974,180.95621a113.31848,113.31848,0,0,0,16.18934-23.01806,1.91467,1.91467,0,0,1,1.9624-1.26041q.14063,0,.29046.00869c.274.01559.54822.02244.82306.02244.8902,0,1.77838-.07229,2.63739-.14219.353-.02872.70575-.05747,1.05793-.0811,2.1156-.1419,3.49243-1.39734,3.5932-3.27643.09155-1.70869-1.04706-2.98585-3.124-3.504a19.28872,19.28872,0,0,0-1.97766-.35874c.14948-.312.28937-.596.42633-.86589a201.77434,201.77434,0,0,0,16.00733-42.40744c1.19421-4.80087,4.253-8.04143,9.62634-10.19831a4.18154,4.18154,0,0,1,1.55023-.32709,3.23946,3.23946,0,0,1,3.01,2.43928,16.25877,16.25877,0,0,1,.65588,2.683c.08075.43147.16163.86287.25556,1.28928.17609.79919.326,1.63381.471,2.441a29.36539,29.36539,0,0,0,1.38665,5.58362,6.39824,6.39824,0,0,0,6.13453,4.343,8.47031,8.47031,0,0,0,3.1773-.65357,14.47729,14.47729,0,0,0,2.84235-1.60041A57.25305,57.25305,0,0,0,159.50015,100.02c3.62158-4.706,7.239-9.53634,10.73731-14.20766q3.20169-4.27523,6.41674-8.54018a14.926,14.926,0,0,1,1.025-1.19341q-.00743.076-.019.15056l-.39618,2.53729c-1.5487,9.91977-3.15014,20.17724-4.7821,30.25525-2.53333,15.64477-3.68976,28.39256-3.63922,40.11806.025,5.77856.37707,11.86578,4.29376,17.18968,8.787,11.94416,18.54889,17.7941,30.72119,18.41013.56336.0285,1.10926.043,1.62262.043,3.59973,0,8.77625-.608,12.15625-5.8651.15222-.23675.31122-.47206.47052-.708a12.27519,12.27519,0,0,0,1.50763-2.7036c1.96967-5.51959,4.06909-11.58778,6.41821-18.55128a113.02082,113.02082,0,0,0,5.16962-51.92556c-3.56348-25.91844-14.71326-47.9721-33.13965-65.54831-22.02575-21.00943-47.925-31.6621-76.97845-31.6621ZM77.74612,143.44034c-.42914-.43516-.85425-.85756-1.27105-1.2716A41.29843,41.29843,0,0,1,72.501,137.839c-8.41437-11.18591-12.18183-23.64194-11.1977-37.02206A28.3767,28.3767,0,0,1,72.54849,79.62155c7.80566-6.04353,15.86353-9.07294,24.634-9.26131q.1626-.00347.32569-.00347a22.42827,22.42827,0,0,1,5.12.67169,11.85594,11.85594,0,0,1,9.38178,8.92534,33.81373,33.81373,0,0,1,.63812,16.1165,6.95271,6.95271,0,0,1-1.80231,3.41275C99.47842,110.40636,89.20151,123.86787,79.428,140.63677c-.44611.76538-.90546,1.523-1.4441,2.41138l-.23773.39219Zm6.59345,3.31214c7.28387-13.18159,14.96148-24.02678,23.37994-33.01552a167.128,167.128,0,0,1-14.2616,34.85175,1.14832,1.14832,0,0,1-.34954.33221,22.987,22.987,0,0,1-8.7688-2.16844Zm-18.033,36.92385a269.26545,269.26545,0,0,1,13.91192-29.34606c.43512-.78644.64075-.78644.806-.78644a2.14692,2.14692,0,0,1,.63269.12816c2.01288.66166,4.01831,1.21481,6.14148,1.80044q.706.19473,1.42188.39341a101.9706,101.9706,0,0,1-22.91394,27.81049Z"/></svg>